<?xml version="1.0" encoding="utf-8"?>
<!-- Generator: Adobe Illustrator 21.0.0, SVG Export Plug-In . SVG Version: 6.00 Build 0)  -->
<svg version="1.1" id="Layer_1" xmlns="http://www.w3.org/2000/svg" xmlns:xlink="http://www.w3.org/1999/xlink" x="0px" y="0px"
	 viewBox="0 0 1362.2 370.6" style="enable-background:new 0 0 1362.2 370.6;" xml:space="preserve">
<style type="text/css">
	.st0{fill:#BFBFC1;}
	.st1{fill:#FEFEFE;}
	.st2{fill:#0233C9;}
</style>
<g>
	<path class="st0" d="M598.9,331c0.4-8.7,0.8-16.1,1-23.6c0-0.5-1.2-1.6-1.8-1.6c-4.5-0.1-9.1-0.2-13.6,0c-0.7,0-2,1.2-2.1,2
		c-0.4,3.6-0.3,7.3-0.6,11c-0.3,3,0.5,4.2,3.7,3.8C591.5,321.8,596.5,323.3,598.9,331z"/>
	<path class="st0" d="M1362.2,103.7c-0.3,0.5-0.9,1.1-0.9,1.6c-0.7,15.1-1.3,30.3-2,45.5c-0.7,14.6-1.4,29.2-2.4,43.7
		c-0.7,10.9-10,19.2-20.8,19.2c-20.2,0-40.3-0.1-60.5,0.1c-7.1,0.1-11.7-3.6-15.7-8.9c-1.6-2.1-3.4-4.3-5.6-5.8
		c-7.5-5.2-10.8-13.2-9.9-25.2c-3.2,0.3-6.3,0.7-9.4,0.8c-19,0.1-37.9,0.1-56.9,0c-8.7,0-14.8-4.1-18.7-11.8
		c-0.6-1.2-2.6-1.8-3.6-2.9c-3.9-4.4-7.6-8.9-11.1-13c-2.2,6-5.1,13.6-7.9,21.1c-1.6,4.2-4.6,6.6-9,6.6c-11.9,0.1-23.8,0.1-35.8,0
		c-5.9-0.1-9-2.8-10.5-8.9c-0.5-2.3-1.1-3.5-4-3.7c-5.2-0.4-7-4.7-8.1-9.2c-1.6-6.1-3.1-12.2-4.8-18.3c-0.2-0.6-1.1-1.4-1.7-1.4
		c-9.7,0-19.4,0.7-29.1,0c-3.6-0.3-7-3.6-10.5-5.4c-0.3,5.6-0.7,11.8-1.1,18.1c-0.3,6.1-0.3,12.3-1,18.4c-0.8,7.7-4,10.3-11.9,10.4
		c-9.8,0.1-19.7,0.1-29.5,0c-5.1,0-7.7-2-10.3-7.9c-2,6.6-6.8,8-12.8,7.9c-21.9-0.1-43.8-0.2-65.8,0c-9,0.1-15.2-3.8-19.3-11.6
		c-0.5-0.9-1.5-1.5-2.2-2.2c-0.3,0.9-0.8,1.8-0.8,2.7c-0.3,6.9-4.3,11-11.2,10.9c-11.4-0.1-22.7,0-34.1-0.3c-5.1-0.2-7.8-4-8.3-8.5
		c-0.4-3.1-1.2-3.9-4.1-3.7c-1.1,0.1-2.3-0.6-3.7-1c-0.2,1.4-0.4,2.6-0.6,3.8c-0.7,5.1-3.3,9.2-8.6,9.4c-12,0.4-24,0.4-36-0.1
		c-5.9-0.2-8.7-4.2-9.3-10.3c-0.1-0.6-1-1.8-1.4-1.7c-7.4,0.7-10.9-6.8-10.5-13.4c0.8-12.5,1.3-25,1.9-37.5
		c1.3-27.7,2.6-55.5,3.9-83.2c0.3-6.5,0.4-13.1,1.5-19.5c0.6-3.1,3.3-5.8,5.1-8.7c14.2,0,28.5,0,42.7,0c1.9,3.8,3.9,7.6,5.8,11.4
		c0.2,0.3,0.7,0.5,1.1,0.6c2.1,0.4,4.2,0.7,4.6,0.8c2.9-4.5,5.5-8.7,8-12.8c13.8,0,27.5,0,41.3,0c3.9,2.4,6.4,5.7,6.4,10.5
		c0,0.5,1.3,1.4,2.1,1.5c5.4,0.4,9.7,4.2,9.7,9.7c0,6.6-0.6,13.2-0.7,19.9c-0.1,7.2,0,14.4,0,21.2c2.7-0.2,6.1-0.8,9.5-0.8
		c19-0.1,37.9,0,56.9-0.1c8.3,0,14,3.7,17.6,10.9c0.5,0.9,1.2,1.8,2.3,3.5c0.2-1.7,0.4-2.3,0.4-2.9c0.4-8,3.9-11.5,11.9-11.5
		c21.8,0,43.7-0.1,65.5,0.1c3.4,0,6.8,2.2,10.3,3.1c1,0.3,2.2,0,3.2-0.4c2.6-0.9,5-2.7,7.6-2.8c10.5-0.3,21.1-0.1,31.7-0.1
		c8.7,0,11.2,2,13.3,10.5c0.2,0.7,0.5,1.6,1.1,1.8c3.1,1.2,6.4,2.2,9.9,3.4c0.7-2,1.9-5,2.9-8.1c1.7-5.2,5.1-7.9,10.7-7.7
		c4.9,0.1,9.9-0.6,14.6,0.2c3.2,0.5,5.9,3.1,9,4.6c0.7,0.4,2.1,0.7,2.5,0.4c4.4-3.9,9.6-5.3,15.4-5.3c19,0.1,38.1,0.2,57.1,0
		c8.7-0.1,14.5,3.8,18.4,11.3c0.4,0.8,1.3,1.4,2,2.1c0.3-0.9,0.9-1.8,0.9-2.7c0.2-6.7,4.3-10.6,10.9-10.6c10.4,0,20.8-0.1,31.2,0.1
		c1.9,0,4.2,0.6,5.4,1.8c2.2,2.3,3.4,2.3,5.8,0.1c1.4-1.3,4.1-1.8,6.2-1.9c10.2-0.2,20.3-0.1,30.5-0.1c6.8,0,10.4,3.5,10.9,10.3
		c0.1,0.7,0.8,2,1.1,1.9c5.8-0.7,8.4,3.1,10.8,7.4c0,4.8,0,9.6,0,14.4c0,1.4,0,2.9,0,4.3C1362.2,101.4,1362.2,102.6,1362.2,103.7z"
		/>
	<path class="st0" d="M103.7,0c6.1,2.3,10.2,6.5,13.4,12.3c1.3,2.4,4.9,3.5,7,5.5c6,5.8,7.2,13.2,6.7,21.1c-0.5,7.9-0.8,15.9-1.2,23
		c22.3,0,44.3,0.2,66.2-0.1c8.9-0.1,14.6,4,18.6,11.4c0.4,0.8,1.1,1.5,1.3,1.8c1.8-3.7,3.1-7.4,5.4-10.6c1-1.4,3.7-2.4,5.7-2.4
		c24.2-0.2,48.3-0.2,72.5-0.1c7.2,0,11.8,4.4,15.5,10.1c1,1.6,2.8,2.7,4.2,4.1c0.7-1.1,1.5-2.3,2.2-3.4c4.2-7.3,10.5-10.8,18.9-10.8
		c19.6,0,39.2,0.1,58.8,0c8.3-0.1,13.6,4.2,17.4,11c0.5,0.9,1.2,1.8,2.5,3.7c0.4-7.8,0.8-14.3,1.1-20.8c0.4-7.7,0.7-15.5,1-23.2
		c0.3-5.5,4.5-9.8,9.8-9.8c10.7-0.1,21.4-0.1,32.2,0c5.3,0,9,3.5,9.8,9c0.3,2.3,0.8,3.6,3.7,3.5c4.3-0.2,8.3,4.5,8.3,9.2
		c0,5.2-0.2,10.4-0.5,15.6c-0.1,2.4,0.3,2.8,3,2.6c9.9-0.5,19.8-0.6,29.7-0.5c3.1,0,3.7-1.1,3.9-3.8c0.4-9,0.7-18,1.5-27
		c0.5-5.6,4.5-8.6,10.2-8.6c9.8,0,19.5,0,29.3,0c7.9,0,10.7,2.4,12.3,10.1c0.2,0.9,1.5,2.1,2.4,2.1c4.9,0.4,9.3,4.3,9.1,9.4
		c-0.8,21-1.8,41.9-2.8,62.9c-0.5,11-1,22-1.5,33c-0.4,8.4-0.6,16.9-1.5,25.3c-0.7,6.4-4.3,9.1-10.8,9.2c-22.9,0.1-45.8,0.1-68.6,0
		c-8.7,0-14.8-4.3-18.6-12c-0.4-0.7-1.1-1.3-2.1-2.4c-0.3,2.2-0.4,3.7-0.7,5.2c-0.9,4.6-3.1,8.5-8.1,8.7c-9,0.3-18.1,0.5-27-0.2
		c-6.6-0.5-10.8-5.3-13.8-11c-0.4-0.8-1.1-1.5-2-2.8c-0.3,2.7-0.4,4.5-0.7,6.3c-1.1,5.4-4.6,8.1-10,8.2c-23.6,0.1-47.2,0.1-70.8,0
		c-8,0-13.2-4.5-16.8-11.2c-0.6-1-1.5-1.9-3-3.6c-0.1,2.1-0.2,2.9-0.2,3.7c-0.2,6.6-3.1,10.4-9.7,10.7c-8.7,0.4-17.5,0.9-26-0.5
		c-4.8-0.8-9.1-5.3-13.4-8c-3.6,8.5-4.1,8.9-15,8.9c-8.3,0-16.6,0-25,0c-7.4,0-11.1-3.3-12.2-10.6c-0.1-0.6-0.4-1.1-0.6-1.7
		c-0.5,0.4-1.3,0.6-1.6,1.1c-4.6,8.5-12,11.4-21.3,11.2c-16.1-0.3-32.2-0.1-48.2-0.1c-8.7,0-17.7,0.8-23.9-8.2
		c-2.1,7.3-7.2,8.4-13.1,8.2c-8.6-0.2-17.3-0.2-25.9-0.4c-6.2-0.1-10.4-3.6-14.1-8.3c-2.8-3.5-6.1-6.6-10-10.7
		c-0.5,4.7-0.5,7.9-1.1,11.1c-1.1,5.6-4.7,8.4-10.3,8.4c-11.5-0.1-23,0-34.5-0.4c-4.9-0.2-8.1-4.3-8.6-9.3c-0.1-1-1.7-2.5-2.6-2.6
		C4.3,162,2.2,158.6,0,155c0-4.3,0-8.6,0-13c0-1.4,0-2.9,0-4.3c0-1.1,0-2.2,0-3.4c0.3-0.5,0.8-1.1,0.9-1.6
		c0.8-16.6,1.7-33.3,2.4-49.9C4.2,64,4.6,45,6,26.2c0.7-9-2.3-19.1,6.5-26.2C42.9,0,73.3,0,103.7,0z"/>
	<path class="st0" d="M702.7,0c3.6,2.8,6.3,6,6.3,10.9c0,0.4,0.7,1,1.2,1.1c8,1.5,11.4,5.9,10.7,13.9c-0.4,4-0.7,7.9-0.9,11.9
		c-0.3,5.9-4.3,9.8-10.2,9.8c-9.8,0-19.7,0-29.5,0c-0.8,0-2.2,0.1-2.2,0.3c-0.4,4.6-0.8,9.1-1,13.7c0,0.1,1.3,0.4,1.9,0.4
		c3.5,0.1,7.1-0.3,10.5,0.2c6,0.7,7.9,5.2,8.8,10.4c0.1,0.7,1.1,1.7,1.7,1.8c6.2,0.5,10,4.3,10.1,10.7c0,5.3-0.2,10.7-0.8,16
		c-0.6,5.6-4.7,8.8-10.4,8.9c-7.4,0-14.7-0.1-22.1,0.1c-0.9,0-2.3,1.5-2.4,2.4c-0.5,2.7-0.2,5.6-0.6,8.3c-0.8,4.9,0.7,6.6,5.8,6.1
		c4.8-0.5,9.7-0.1,14.6-0.1c6.2,0,10.1,3.6,10.8,10.1c0.1,0.7,0.8,1.8,1.3,1.9c7.8,1.4,11.3,6,10.6,13.8c-0.4,4-0.7,7.9-0.9,11.9
		c-0.3,5.9-4.4,10.1-10.3,10.2c-22.2,0.1-44.5,0.1-66.7,0c-8,0-13.8-3.8-17.8-10.7c-0.9-1.5-2.2-2.8-3.7-3.8
		c-8.8-5.5-11.5-13.9-11-23.7c0.6-12.7,1.3-25.3,1.9-38c1.3-25.7,2.3-51.5,3.9-77.2C613.3,10.6,618.9,3,629.8,0
		C654.1,0,678.4,0,702.7,0z"/>
	<path class="st0" d="M659.8,151.2c8.4,0,16.8,0,25.2,0c10.7,0,10.8,0,10.9-10.8c0-0.8-1.5-2.4-2.3-2.4c-11.8-0.2-23.7-0.1-35.5-0.1
		c-3.7,0-6.2-1.8-6-5.6c0.6-14.5,1.3-28.9,2.1-43.4c0.1-0.9,1.6-2.3,2.5-2.4c9.9-0.2,19.8-0.1,29.8-0.2c0.8,0,2.2-1.3,2.3-2.1
		c0.4-2.9,0.5-5.9,0.4-8.8c0-0.8-1.4-2.2-2.1-2.2c-10-0.1-20-0.1-30-0.2c-0.7,0-2.1-1-2.1-1.5c0.5-13.7,1.2-27.3,2-40.9
		c0.2-4.2,2.6-6.3,7.1-6.3c8.2,0.2,16.5,0,24.7,0c10.8,0,10.9,0,11-10.8c0-0.8-1.5-2.4-2.3-2.4C676.2,11,655,11,633.8,11
		c-7,0-11.9,4.6-12.2,11.5c-1.9,38.8-3.8,77.6-5.7,116.4c-0.4,7.6,4.1,12.2,11.7,12.2C638.4,151.2,649.1,151.2,659.8,151.2z"/>
	<path class="st1" d="M0,137.8c0,1.4,0,2.9,0,4.3C0,140.6,0,139.2,0,137.8z"/>
	<path class="st1" d="M1362.2,100.3c0-1.4,0-2.9,0-4.3C1362.2,97.4,1362.2,98.9,1362.2,100.3z"/>
	<path class="st1" d="M797.3,370.6c0.3,0,0.6,0,1,0C797.9,370.6,797.6,370.6,797.3,370.6z"/>
	<path class="st1" d="M1234.1,370.6c0.3,0,0.6,0,1,0C1234.7,370.6,1234.4,370.6,1234.1,370.6z"/>
	<g>
		<path class="st2" d="M792.8,11.1c-0.7,14.6-1.4,29-2,43.3c-0.5,10.7-1.1,21.4-1.5,32.1c0,0.6,1.1,1.8,1.7,1.8
			c7.5,0.1,15,0.1,22.6,0c0.7,0,1.8-1.1,1.8-1.8c1.2-24.3,2.3-48.5,3.6-72.8c0-0.9,1.7-2.5,2.6-2.5c10.3-0.2,20.6-0.2,31,0
			c0.7,0,2,1.3,2,2c-1.9,42.2-4,84.3-5.9,126.5c-0.5,11.6-0.4,11.6-12,11.6c-7.4,0-14.7,0.1-22.1-0.1c-0.8,0-2.3-1.6-2.3-2.4
			c0.6-14.6,1.4-29.2,2.2-43.8c0.1-2.4-0.3-3.3-3-3.2c-7,0.2-14.1,0-21.1,0.2c-0.8,0-2.1,1.3-2.1,2c-0.8,14.9-1.4,29.9-2.2,44.8
			c-0.1,0.9-1.7,2.5-2.6,2.5c-10.3,0.2-20.6,0.2-30.9,0c-0.8,0-2.2-1.6-2.1-2.3c2.1-45.3,4.3-90.5,6.5-135.8c0-0.6,0.7-1.8,1.1-1.8
			C769.6,11,781.1,11.1,792.8,11.1z"/>
		<path class="st2" d="M1303.7,151.2c-11.9,0-23.7,0-35.4,0c-9.5,0-13.4-4.5-12.9-14.1c1.2-20.6,2-41.2,3-61.8
			c0-0.7,1.1-2.1,1.6-2.1c10.6-0.1,21.3-0.1,31.5-0.1c0,6.4,0.2,12.7,0,19c-0.6,14.5-1.4,29.1-2.1,43.6c-0.2,3.6,1.7,5.7,5.4,5.9
			c6.7,0.3,9.5-1.4,9.7-6.3c0.7-15.3,1.4-30.5,2.1-45.8c0.2-4.9,0.5-9.7,0.9-14.6c0.1-0.6,1.3-1.7,1.9-1.7c10-0.1,20-0.1,30,0
			c0.6,0,1.9,1.2,1.8,1.8c-1.6,34.9-3.3,69.8-5,104.7c-0.3,6-5.4,10.8-11.4,10.8c-20.2,0.1-40.5,0-60.7,0c-6.2,0-10.7-4.3-10.7-10.5
			c0-5.8,0.3-11.7,0.6-17.5c0-0.6,1.2-1.7,1.8-1.7c10.2-0.1,20.3-0.1,30.5,0c0.6,0,1.7,1.2,1.7,1.9c0,3.8-0.2,7.7-0.4,11.5
			c-0.2,3.6,0.8,6.2,4.7,6.8c6,0.8,9.8-1,10.2-5.3C1303.1,167.6,1303.3,159.5,1303.7,151.2z"/>
		<path class="st2" d="M912,151.2c-11.1,0-22.2,0-33.4,0c-7.8,0-12.2-4.6-11.9-12.3c0.2-6.6,0.6-13.3,1-19.9
			c0.4-7,5.3-11.5,12.4-11.5c10.2,0,20.3,0,30.5,0c4.6,0,6.8-2.4,7.1-6.7c0.3-4,0.5-8,0.5-12c0.1-3.8-2-6-5.8-6.1
			c-4.3-0.2-8.6-0.1-9.1,5.6c-0.8,9.2-0.7,9.2-10.1,9.2c-7.4,0-14.9,0.1-22.3-0.1c-0.7,0-2-1.3-2-2c0.1-4.1,0.1-8.3,0.8-12.4
			c1.1-6.2,5.8-9.8,12-9.8c20,0,40,0,60,0c6.4,0,10.9,5,10.6,12.1c-0.6,13.6-1.3,27.1-1.9,40.7c-0.4,7.7-0.7,15.5-1.2,23.2
			c0,0.7-1.4,1.9-2.2,1.9C935.4,151.2,923.7,151.2,912,151.2z M912,117.1c-9.3,0-10.5,1.2-10.6,9.9c0,0.8,0,1.6-0.1,2.4
			c-0.4,12.4-0.4,12.4,12.1,12.2c0.8,0,2.2-1.3,2.2-2.1c0.5-5.5,0.5-11,1-16.5C917.2,118.5,916.9,115.5,912,117.1z"/>
		<path class="st2" d="M1194.7,151.2c-9.4,0-18.9,0-28.3,0c-8,0-12.3-4.3-12-12.4c0.7-18,1.5-35.9,2.4-53.9
			c0.3-7,5.6-11.8,12.6-11.8c19.7,0,39.3,0,59,0c7.3,0,12.1,5.4,11.6,12.7c-0.5,6.5-0.5,12.9-1,19.4c-0.6,7.6-5.3,11.8-13,11.8
			c-11.4,0-22.7-0.1-34.1,0.1c-0.9,0-2.4,1.6-2.5,2.5c-0.5,5.2-0.6,10.4-0.9,15.5c-0.2,3.4,1.1,6,4.7,6.3c4.1,0.3,8.6,0.9,10.1-4.7
			c0.2-0.8,0.3-1.7,0.4-2.6c0.4-7.4,0.3-7.4,7.7-7.4c8.1,0,16.2-0.1,24.2,0.1c0.7,0,2.1,1.4,2.1,2.2c0.1,3.7-0.2,7.3-0.4,11
			c-0.5,6.4-5.6,11.1-12.2,11.1C1215,151.2,1204.9,151.2,1194.7,151.2z M1205.6,92.5c0.1,0,0.1,0,0.2,0c0-1,0-2.1,0-3.1
			c0.2-3.9-1.4-6.4-5.5-6.7c-4.5-0.4-8.9,0.1-9.5,5.8c-0.6,5.7-0.7,11.5-0.9,17.2c0,0.6,0.7,1.6,1.2,1.7
			c11.3,1.7,13.9-0.5,14.4-11.8C1205.6,94.6,1205.6,93.5,1205.6,92.5z"/>
		<path class="st2" d="M1058.5,73.1c12,0,23.8,0,35.5,0.1c0.6,0,1.6,1.3,1.8,2.1c3.8,16.7,7.4,33.4,11.1,50.1
			c0.2,0.8,0.4,1.6,0.9,3.3c3.3-9.5,6.4-18.3,9.5-27c3.1-8.7,6-17.5,9.3-26.2c0.4-1.1,2.1-2.2,3.3-2.2c5-0.2,10.1-0.1,15.6-0.1
			c-1.9,5.1-3.6,10-5.3,14.8c-7.6,20.4-15.2,40.9-22.8,61.3c-0.3,0.9-1.7,1.9-2.6,1.9c-11.4,0.1-22.9,0.1-34.3,0
			c-0.8,0-2.1-0.9-2.3-1.6c-6.5-24.7-12.9-49.4-19.4-74.2C1058.8,74.7,1058.7,74.1,1058.5,73.1z"/>
		<path class="st2" d="M966.8,151.2c0.7-15.2,1.4-30.1,2.1-45c0.5-10.4,1-20.8,1.7-31.1c0-0.7,1.3-1.9,2-1.9
			c21.8-0.1,43.7-0.1,65.5-0.1c6.5,0,11.3,4.9,11,11.6c-0.3,8.1-0.7,16.1-1.3,24.2c0,0.6-1.2,1.7-1.8,1.7c-6.4,0.1-12.8,0-19.2,0
			c-6.3-0.1-10.5-4.2-10.6-10.5c0-3.6,0.6-7.2,0.3-10.8c-0.2-2-1.3-5.1-2.7-5.7c-2.7-1.1-6.1-0.7-9.1-0.7c-0.2,0-0.5,1.4-0.6,2.1
			c-1.1,21.1-2.1,42.3-3.3,63.4c-0.1,1-1.7,2.6-2.6,2.6C987.7,151.3,977.3,151.2,966.8,151.2z"/>
	</g>
	<g>
		<path class="st2" d="M87.8,101.7c7.1,16.7,14.1,32.9,21.2,49.4c-10.4,0-20.4,0.6-30.3-0.3c-3-0.3-7-3.9-8.4-7
			c-6-13-11-26.4-16.8-39.5c-0.6-1.4-3.5-1.8-5.3-2.6c-0.4,1.1-1.2,2.3-1.3,3.4c-0.8,14.7-1.4,29.4-2.2,44.1c0,0.7-1.3,1.9-2,1.9
			c-10.6,0.1-21.3,0.1-31.9,0c-0.6,0-1.8-1.4-1.7-2c1.3-28.4,2.6-56.7,4-85.1c0.8-16.8,1.6-33.5,2.5-50.3c0.1-0.9,1.8-2.6,2.8-2.6
			C45.1,11,71.8,11,98.4,11c7,0,11.9,4.7,11.5,11.8c-1,22.8-2.2,45.5-3.4,68.3c-0.3,5.9-5.5,10.4-11.7,10.6
			C92.7,101.7,90.6,101.7,87.8,101.7z M57.4,88.3c2.2,0,4.5-0.1,6.7,0c4.7,0.2,7-2.3,7.3-6.7c0.9-17.1,1.8-34.3,2.5-51.4
			c0.2-3.7-1.9-5.8-5.8-5.8c-5,0-9.9-0.1-14.9,0.1c-0.8,0-2.3,1.4-2.3,2.2c-1,17.8-1.8,35.6-2.7,53.4c-0.4,8.2-0.5,8.2,7.8,8.2
			C56.4,88.3,56.9,88.3,57.4,88.3z"/>
		<path class="st2" d="M522.2,151.2c-11.3,0-22.6,0-33.8,0c-7.3,0-11.6-4.2-11.4-11.5c0.6-18.1,1.4-36.1,2.3-54.2
			c0.4-7.9,5.5-12.4,13.5-12.4c11.4,0,22.7,0,34.1-0.1c0.8,0,2.1-1.2,2.1-1.9c0.7-11.8,1.3-23.6,2-35.4c0-0.7,1.2-1.8,1.8-1.8
			c10.1-0.1,20.2-0.1,30.2,0c0.6,0,1.8,1.4,1.8,2.1c-1.8,37.8-3.6,75.5-5.6,113.3c0,0.7-1.4,1.9-2.2,1.9
			C545.4,151.2,533.8,151.2,522.2,151.2z M525.7,141.6c0.8-17.4,1.6-34.5,2.5-51.5c0.4-7.5,0.6-7.3-6.8-7.4
			c-4.6-0.1-7.9,1.5-8.1,6.4c-0.8,15.7-1.6,31.5-2,47.2c0,1.8,2.6,4.6,4.5,5.1C518.7,142.2,522.1,141.6,525.7,141.6z"/>
		<path class="st2" d="M167,73.1c9.8,0,19.5,0,29.3,0c7,0,11.9,4.5,11.6,11.5c-0.7,18.3-1.5,36.6-2.6,54.8
			c-0.4,7.6-5.4,11.8-13,11.8c-19.4,0-38.7,0-58.1,0c-7.8,0-12.1-4.1-11.8-11.8c0.7-18.4,1.5-36.7,2.5-55.1
			c0.3-6.4,5.7-11.2,12.2-11.2C147,73.1,157,73.1,167,73.1z M172.7,111.4C172.7,111.4,172.6,111.4,172.7,111.4
			c0.3-6.9,0.6-13.9,1-20.8c0.3-4.2-0.7-7.4-5.5-7.9c-6.4-0.6-9.3,1.5-9.6,7c-0.7,15-1.4,30-2.1,45c-0.2,3.8,0.8,6.5,5.1,6.9
			c6.7,0.6,9.5-1,9.9-6C172,127.5,172.3,119.4,172.7,111.4z"/>
		<path class="st2" d="M263.5,73.1c11.3,0,22.6,0,33.8,0c6.8,0,11.7,4.4,11.4,11.2c-0.8,21.8-2,43.6-3.1,65.4c0,0.5-1.3,1.5-2,1.5
			c-6.6,0.1-13.1,0.1-19.7,0.1c-7.7,0-12.1-4.6-11.7-12.3c0.7-16.1,1.6-32.3,2.3-48.4c0.3-6.4-1.4-7.5-7.7-8
			c-5.4-0.4-7.3,0.7-7.4,6.8c-0.4,19.6-1.8,39.1-2.6,58.7c-0.1,2.5-0.6,3.4-3.3,3.3c-9.5-0.2-19,0-28.5-0.2c-0.7,0-2.1-1.4-2.1-2.1
			c1-24.7,2.2-49.3,3.5-74c0-0.7,1.6-1.7,2.4-1.8C240.3,73.1,251.9,73.1,263.5,73.1z"/>
		<path class="st2" d="M369.8,151.2c-11.4,0-22.7,0-34.1,0c-7,0-11.5-4.4-11.4-11.4c0.1-7.3,0.5-14.7,1.1-22
			c0.5-5.8,5.6-10.3,11.3-10.3c10.5-0.1,21,0,31.4,0c4.7,0,6.8-2.5,7.1-6.9c0.2-3.9,0.4-7.8,0.5-11.7c0.1-4-2.2-6-6.1-6.2
			c-4.2-0.1-8.4,0.1-8.8,5.6c-0.7,9.1-0.7,9.2-9.9,9.2c-7.5,0-15,0.1-22.5-0.1c-0.7,0-2-1.3-2-2c0.1-4.1,0.2-8.3,0.8-12.4
			c1-6,5.8-9.8,11.8-9.8c20,0,40,0,60,0c6.7,0,11.2,4.8,10.8,12.2c-0.9,20-2.2,39.9-2.7,59.9c-0.1,5.2-1.5,6.4-6.5,6.2
			C390.5,150.9,380.2,151.2,369.8,151.2z M367.8,142.3c1.8-0.8,5.2-1.4,5.3-2.4c0.8-7,1-14,1.2-21c0-0.6-1.1-1.8-1.8-1.8
			c-12.7-0.5-13-0.2-13.6,12.3c0,0.9-0.1,1.8-0.2,2.6C358.2,140.6,359.2,141.6,367.8,142.3z"/>
		<path class="st2" d="M447,33.8c5,0,9.9-0.1,14.9,0.1c0.7,0,1.9,1.2,1.9,1.8c-1.6,36-3.3,72-5,108c-0.4,7.5-0.3,7.5-7.7,7.5
			c-5,0-10.1,0.1-15.1,0c-6.6-0.1-11.3-5-11-11.6c1.7-34.6,3.4-69.1,5.2-103.7c0-0.7,1.3-2,2.1-2C437.1,33.7,442.1,33.8,447,33.8z"
			/>
	</g>
	<path class="st2" d="M659.8,151.2c-10.7,0-21.4,0-32.2,0c-7.6,0-12.1-4.6-11.7-12.2c1.9-38.8,3.8-77.6,5.7-116.4
		c0.3-6.9,5.2-11.5,12.2-11.5c21.2,0,42.4,0,63.6,0.1c0.8,0,2.3,1.6,2.3,2.4c-0.1,10.8-0.2,10.8-11,10.8c-8.2,0-16.5,0.1-24.7,0
		c-4.5-0.1-6.9,2.1-7.1,6.3c-0.8,13.6-1.4,27.3-2,40.9c0,0.5,1.4,1.5,2.1,1.5c10,0.1,20,0,30,0.2c0.7,0,2.1,1.4,2.1,2.2
		c0.1,2.9,0,5.9-0.4,8.8c-0.1,0.8-1.5,2.1-2.3,2.1c-9.9,0.1-19.8,0-29.8,0.2c-0.9,0-2.5,1.5-2.5,2.4c-0.8,14.4-1.6,28.9-2.1,43.4
		c-0.1,3.8,2.3,5.6,6,5.6c11.8,0,23.7-0.1,35.5,0.1c0.8,0,2.3,1.6,2.3,2.4c-0.1,10.8-0.2,10.8-10.9,10.8
		C676.6,151.2,668.2,151.2,659.8,151.2z"/>
	<path class="st0" d="M1233,271.4c-0.8-0.4-1.4-1.2-1.8-2c-3.8-7.2-9.3-11.5-17.8-11.5c-23,0.1-45.9,0-68.9,0
		c-7.2,0-11.3,3.9-11.6,11.1c0,0.8-0.5,1.5-0.8,2.2c-0.6-0.6-1.4-1-1.7-1.7c-3.5-6.9-8.7-11.6-16.8-11.6c-20.2-0.1-40.5-0.1-60.7,0
		c-7.2,0-7.2,0.2-7.3-7.2c-0.1-6.2-3.7-9.9-9.8-10.3c-0.6,0-1.7-1-1.8-1.7c-1.3-8-4.4-10.6-12.5-10.6c-9.8,0-19.5,0-29.3,0
		c-5.5,0-9.6,2.8-10.1,8.2c-0.8,9-0.8,18-1.2,27c0,0.8-0.1,1.7-0.2,2.5c-2.6-7.3-8.1-8.1-14.5-8c-1.1,0-2.9-1.5-3.2-2.7
		c-1.3-4.3-3.3-8.1-8.2-8.5c-2.9-0.2-3.5-1.5-3.9-4c-0.8-5.3-4.6-8.3-10-8.3c-10.2,0-20.5,0-30.7,0c-7,0-10.8,3.9-11.1,10.9
		c-0.3,7.8-0.6,15.6-1,23.4c0,0.9-0.6,1.7-1,2.5c-0.6-0.6-1.4-1.2-1.8-1.9c-3.9-7.3-9.6-11.5-18.1-11.4c-19.4,0.1-38.9,0-58.3,0
		c-8.4,0-14.7,3.5-18.9,10.9c-0.4,0.6-1.3,0.9-1.9,1.4c-0.2-0.7-0.6-1.4-0.7-2.1c-0.6-4.4-2.4-9.3-6.9-9.6
		c-12.3-0.8-24.7-1.2-36.8-0.1c-4.6,0.4-8.3,1.2-13.3,0.2c-9.3-1.9-19.2-0.9-28.9-0.8c-3.5,0-7.5,0.1-10.3,1.8c-2.7,1.6-4,5.4-5.8,8
		c-3.9-6.7-10.1-10.1-18.8-9.9c-20.2,0.3-40.3,0.2-60.5,0c-6.5-0.1-11.9,0.9-13.8,8.6c-3.4-7.5-5.1-8.4-14.3-8.6
		c-1.1,0-2.8-1.6-3.1-2.7c-1.3-4.5-3.6-8.1-8.5-8.5c-2.9-0.2-3.3-1.5-3.6-3.7c-0.8-5.5-4.5-8.5-10-8.5c-10.5,0-21,0-31.4,0
		c-5.4,0-9.4,3-9.9,8.4c-0.8,8.6-1,17.2-1.5,25.8c-0.1,0.9-0.5,1.8-0.8,2.7c-0.7-0.7-1.7-1.3-2.2-2.2c-4-7.2-9.7-11.3-18.3-11.2
		c-19.4,0.2-38.7,0-58.1,0.1c-8.3,0-14.5,3.6-18.8,10.7c-0.7,1.2-1.6,2.3-2.4,3.5c-1.3-1.3-2.9-2.4-3.8-3.9
		c-3.8-6.7-9.3-10.3-17.1-10.3c-23,0-46.1,0-69.1,0c-6.7,0-11,4.2-11.4,10.9c0,0.8-0.6,1.6-0.8,2.4c-0.6-0.6-1.4-1.2-1.8-2
		c-3.5-6.8-8.7-11.3-16.7-11.4c-20.1-0.1-40.2-0.1-60.2,0c-9.2,0-17.4,5.1-19.5,14.1c-2.1,8.8-2.4,18.1-3.1,27.2
		c-0.7,9.4-1,18.9-1.5,29.3c-2.8-5.2-6.8-6-11.4-5.8c-5.6,0.2-11.2,0.1-16.8,0c-0.7,0-1.9-1.2-1.9-1.7c1.1-24.8,2.4-49.6,3.7-74.3
		c0.1-0.9,1.7-2.5,2.6-2.6c9.6-0.2,19.2-0.1,28.8-0.1c6.4,0,10-2.8,10.8-9.1c0.7-5.8,1.1-11.6,0.8-17.4c-0.3-4.9-3.3-8.3-8.5-9.4
		c-1.3-0.3-2.9-1.9-3.2-3.2c-1.3-5.7-4.6-8.7-10.6-8.7c-21.3,0-42.6,0-63.8,0c-10.7,0-19.4,6.9-21.2,17.4
		c-0.9,5.2-1.2,10.6-1.4,15.9c-1.2,25-2.3,49.9-3.5,74.9c-0.4,7.7-1,15.4-1.3,23.2c-0.3,8.4-1.3,17,5,23.9c2.4,2.6,6.7,4,8.3,6.9
		c3.6,6.5,8.3,10.7,15.4,12.5c24.3,0,48.6,0,73,0c5.7-2.5,7.9-7.2,8-13.4c3.3,7.1,8.5,11.7,16,13.4c22.1,0,44.2,0,66.2,0
		c6.6-1.6,11.4-5.5,14.7-11.5c0.2-0.4,1-0.6,1.5-0.9c0.2,0.5,0.6,0.9,0.6,1.4c0.4,5.2,2.7,9,7.7,11c12.2,0,24.3,0,36.5,0
		c4.8-1.8,7.6-5.1,8.1-11.2c3.7,6.4,8.5,10,15,11.2c8.6,0,17.3,0,25.9,0c6.7-2.1,8.3-7.4,8.8-14.2c3.9,6.9,8.7,12.5,16.7,14.2
		c22.1,0,44.2,0,66.2,0c7.6-1.8,12.8-6.4,16-13.4c0.1-0.2,3.1,0.2,3.5,0.9c3.2,6.4,8,10.8,15.1,12.5c18.9,0,37.8,0,56.6,0
		c3.1-2.4,6.1-4.8,8.3-6.5c2,1.7,4.7,4.1,7.5,6.5c12.2,0,24.3,0,36.5,0c6.8-2.3,7.9-7.9,8.2-14.1c0.4-11.1,1-22.3,1.5-33.6
		c2.2,1.7,4,4.1,6.3,4.6c6.2,1.2,12.6,1.9,19,2.2c3.3,0.1,4.2,1,4,4.2c-0.7,10.3,3,18.4,12.6,23.2c0.4,0.2,0.8,0.5,1,0.9
		c3,6.7,8.1,10.8,15.2,12.6c25.1,0,50.2,0,75.4,0c0.3,0,0.6,0,1,0c0.3,0,0.6,0,1,0c4.1-3.6,7-7.7,6.6-14c4.3,6.8,9.1,12.7,17.4,14
		c22.1,0,44.2,0,66.2,0c7.2-2,12.2-6.4,15.4-13.2c0.1-0.3,3.3,0,3.6,0.7c3.1,6.5,8,10.7,15,12.4c19,0,38.1,0,57.1,0
		c5.5-2.1,7.9-6.2,7.8-12c0-0.6,0.6-1.1,0.8-1.7c0.5,0.4,1.2,0.6,1.4,1.1c3.1,6.7,8.2,11,15.4,12.6c9,0,17.9,0,26.9,0
		c6-2.6,7.7-7.7,8-14.1c4.1,6.8,8.9,12.5,16.9,14.1c21.9,0,43.8,0,65.8,0c7.7-1.3,12.4-6.5,17-14.1c0.5,7.4,2.3,12.3,8.5,14.1
		c12,0,24,0,36,0c4.7-1.7,7.7-4.8,7.8-8.9c4.6,2.9,9.4,5.9,14.2,8.9c9,0,17.9,0,26.9,0c0.3,0,0.6,0,1,0c0.3,0,0.6,0,1,0
		c1.9-2.9,5.2-5.7,5.6-8.8c1.3-10.3,1.5-20.8,2.1-31.3c0.6-11.4,0.7-22.8,1.7-34.2C1246.3,285.5,1242.2,276.5,1233,271.4z
		 M895.3,319.6c-0.3-0.9-0.7-1.9-1-2.8c0.3-0.1,0.7-0.2,1-0.3c0.1,1,0.3,2,0.4,3C895.6,319.5,895.4,319.5,895.3,319.6z M977.2,331.4
		c-2.3-8.8-8.2-9.3-14.6-9c-0.8,0-2.5-1.6-2.5-2.5c-0.1-4.1,0.1-8.1,0.5-12.2c0.1-0.7,1.4-1.9,2.1-1.9c4.5-0.2,8.9-0.2,13.4,0
		c0.7,0,2,1.4,2,2.1C978,315.4,977.6,322.8,977.2,331.4z"/>
	<g>
		<path class="st2" d="M169.7,347.1c-10.6,0-21.3,0-31.9,0c-7.9,0-12.1-4.7-11.7-12.6c1.9-37.9,3.7-75.8,5.4-113.8
			c0.4-9.5,4.7-13.7,14.3-13.7c20.6,0,41.1,0,61.7,0.1c0.8,0,2.3,1.6,2.3,2.4c-0.5,10.9-0.6,10.9-11.5,10.9c-8.2,0-16.5,0-24.7,0
			c-4.1,0-6.3,2.3-6.5,6.2c-1.7,33.5-3.2,67.1-4.8,100.6c-0.2,4.9,2.1,6.8,6.7,6.8c11.6,0,23.2-0.1,34.8,0.1c0.8,0,2.2,1.6,2.2,2.4
			c-0.5,10.7-0.5,10.7-11.2,10.7C186.4,347.1,178.1,347.1,169.7,347.1z"/>
		<path class="st2" d="M267.6,269.2c9.8,0,19.5,0,29.3,0c7.2,0,12,4.4,11.7,11.6c-0.8,18.7-1.8,37.3-2.8,56
			c-0.3,5.5-5.3,10.2-10.9,10.3c-20.6,0.1-41.3,0.1-61.9,0c-6.1,0-10.3-4.8-10.1-11.4c0.7-18.4,1.6-36.9,2.6-55.3
			c0.4-6.7,5.4-11.1,12-11.1C247.6,269.2,257.6,269.2,267.6,269.2z M257.8,317.2c-0.2,4.2-0.3,8.5-0.6,12.7c-0.3,4,0.2,7.4,5.2,7.6
			c7.4,0.4,9.5-1.3,9.8-7.4c0.7-14.7,1.4-29.5,2.2-44.2c0.2-4.3-1.5-6.9-6-7.2c-5.9-0.4-8.9,1.8-9.2,6.6
			C258.8,295.8,258.3,306.5,257.8,317.2z"/>
		<path class="st2" d="M1082.7,269.2c9.8,0,19.7,0,29.5,0c6.9,0,11.7,4.5,11.4,11.4c-0.8,18.7-1.7,37.4-2.8,56
			c-0.3,5.8-5.3,10.4-11.2,10.4c-20.5,0.1-40.9,0.1-61.4,0c-6.6-0.1-10.6-5-10.3-12.4c0.8-17.8,1.6-35.6,2.6-53.4
			c0.4-7.6,5.3-12,12.9-12C1063.2,269.2,1073,269.2,1082.7,269.2z M1088.9,295.7c0.2-3.2,0.3-6.4,0.5-9.6c0.4-4.7-1.6-7.3-6.5-7.5
			c-5.6-0.2-8.4,2-8.7,6.9c-0.7,14.9-1.3,29.9-2,44.8c-0.2,3.9,0.4,7,5.1,7.3c7.2,0.4,9.6-1.4,9.9-6.9
			C1087.8,319,1088.4,307.3,1088.9,295.7z"/>
		<path class="st2" d="M747.2,347.1c-11,0-21.9,0-32.9,0c-8.6,0-12.6-4.3-12.2-12.9c1-20.8,1.9-41.7,3-62.5c0-0.9,1.7-2.4,2.6-2.4
			c9.5-0.2,19-0.2,28.6,0c0.9,0,2.6,1.8,2.6,2.8c-0.8,19.6-1.7,39.1-2.7,58.7c-0.2,3.8,1,6.5,5.2,6.7c6.8,0.4,9.5-1.4,9.8-6.2
			c1-19.8,1.8-39.6,2.9-59.4c0.1-0.9,1.6-2.5,2.5-2.6c9.8-0.2,19.5-0.2,29.3,0c0.7,0,2,1.3,2,2c-1.1,24.6-2.3,49.2-3.6,73.8
			c0,0.7-1.4,2-2.2,2C770.5,347.2,758.9,347.1,747.2,347.1z"/>
		<path class="st2" d="M364.4,269.2c11.2,0,22.4,0,33.6,0c7.1,0,11.7,4.4,11.5,11.5c-0.7,18.5-1.7,37-2.7,55.6
			c-0.2,3.6,0.5,8.5-1.5,10.4c-2,1.8-6.8,0.5-10.4,0.5c-3.6,0-7.2,0.1-10.8,0c-6.9-0.1-11.3-4.5-11.1-11.4
			c0.6-15.4,1.4-30.8,2.2-46.2c0.1-1.6,0.2-3.2,0.2-4.8c0-3.7-1.8-5.7-5.6-6.1c-9-0.9-9.3-0.6-9.7,8.4c-0.9,19.3-1.8,38.6-2.9,57.9
			c0,0.7-1.4,2-2.1,2c-9.9,0.1-19.8,0.1-29.7,0c-0.7,0-1.9-1.2-1.9-1.8c1.1-24.4,2.2-48.9,3.5-73.3c0.1-1,1.7-2.6,2.7-2.6
			C341.2,269.1,352.8,269.2,364.4,269.2z"/>
		<path class="st2" d="M1179.4,269.2c11.3,0,22.6,0,33.8,0c6.7,0,11.5,4.3,11.2,11c-0.9,21.7-2.1,43.4-3.2,65.2c0,0.6-1.3,1.7-2,1.7
			c-6.7,0.1-13.4,0.1-20.2,0.1c-7.1-0.1-11.4-4.6-11.1-11.8c0.7-16.4,1.6-32.7,2.4-49.1c0.3-5.7-1.5-7.5-7.2-7.6
			c-7.8-0.2-7.7-0.2-8,7.6c-0.9,19.6-1.8,39.1-2.9,58.7c0,0.8-1.4,2.1-2.2,2.1c-9.8,0.1-19.7,0.1-29.5,0c-0.7,0-2-1.3-2-2
			c1.1-24.4,2.2-48.7,3.5-73.1c0.1-1,1.8-2.7,2.8-2.7C1156.3,269.1,1167.8,269.2,1179.4,269.2z"/>
		<path class="st2" d="M469.4,269.2c10,0,20,0,30,0c6.3,0,10.8,4.4,10.9,10.6c0,4-0.2,8-0.5,12c0,0.6-1.1,1.5-1.7,1.5
			c-10.2,0.1-20.3,0.1-30.5,0c-0.6,0-1.5-1.1-1.6-1.8c-0.2-1.4,0-2.9,0.1-4.3c0.2-6.5-1.3-8.4-6.4-8.6c-5.9-0.3-8.1,1.6-8.6,7.9
			c-0.3,3.9-0.9,8-0.2,11.7c0.4,2,3.4,4.9,5.4,5c10.3,0.5,20.6,0.2,30.9,0.2c6.3,0,10.8,3.1,11,9.2c0.3,8.8-0.3,17.7-1.5,26.4
			c-0.7,5.1-5.1,8-10.3,8c-20.5,0.1-41.1,0.1-61.7,0c-5.6,0-9.9-4.5-10-10.1c0-4.2,0.2-8.5,0.5-12.7c0-0.5,1.1-1.4,1.7-1.4
			c10.2-0.1,20.3-0.1,30.5,0c0.6,0,1.5,1.1,1.6,1.7c0.2,1.4,0,2.9-0.1,4.3c-0.4,7.7,2.9,10.6,10.3,8.4c1.9-0.6,4-3.3,4.4-5.4
			c0.8-4.4,0.8-9.1,0.8-13.6c0-3.5-2.2-5.3-5.8-5.3c-10.4,0-20.8,0-31.2,0c-6.6,0-11.4-4.5-11.3-11c0.1-7.3,0.4-14.5,1-21.8
			c0.6-6.7,5.6-10.9,12.3-10.9C449.6,269.2,459.5,269.2,469.4,269.2z"/>
		<path class="st2" d="M847.5,269.2c10,0,20,0,30,0c6.5,0,11,4.4,11.1,11c0,3-0.5,5.9-0.2,8.9c0.3,4-1.4,4.6-5,4.4
			c-8.9-0.3-17.8,0-26.6-0.2c-0.9,0-2.1-1.6-2.4-2.7c-0.4-1.2,0-2.7,0.1-4c0.3-4.4-0.8-7.7-6-7.9c-6.4-0.3-8.8,1.6-9.1,7.3
			c-0.8,15-1.6,30-1.9,45c0,2.1,2.3,5.7,4.1,6.2c3.7,1,8.4,1.5,10.3-3.7c0.3-0.9,0.5-1.9,0.5-2.8c0.5-7.9,0.5-7.9,8.6-7.9
			c7.8,0,15.7-0.1,23.5,0.1c0.7,0,2,1.3,2,2c0.1,3.6-0.1,7.2-0.4,10.8c-0.5,6.7-5.3,11.5-12.1,11.5c-20,0.1-40,0.1-60,0
			c-6.7,0-11.2-4.3-10.9-11c0.7-18.6,1.5-37.2,2.5-55.8c0.4-6.6,5.5-11,12.2-11C827.6,269.2,837.5,269.2,847.5,269.2z"/>
		<path class="st2" d="M941.9,269.2c8.3,0,17.5-0.1,26.7,0.1c0.9,0,2.4,1.6,2.4,2.5c-0.2,10.9-0.2,10.9-11,10.9
			c-5.8,0-11.5-0.1-17.3,0.1c-0.9,0-2.4,1.4-2.4,2.2c-0.9,14.1-1.6,28.2-2.2,42.4c-0.2,3.9,1.7,6.2,5.9,6.2c7.4,0,14.7,0,22.1,0.1
			c0.7,0,2,1.3,2,2c0,11.4,0,11.4-11.5,11.4c-13.4,0-26.9,0-40.3,0c-8.5,0-12.8-4.2-12.4-12.7c1.4-29.1,2.8-58.1,4.3-87.2
			c0-0.7,1.2-1.8,1.8-1.8c10-0.1,20-0.1,30,0c0.7,0,1.8,1.4,1.9,2.1C942,254.7,941.9,261.8,941.9,269.2z"/>
		<path class="st2" d="M592.9,269.2c0.1,0.5,0.2,0.5,0.2,0.6c-0.1,12.9-0.1,12.9-12.8,12.9c-5.4,0-10.7-0.1-16.1,0.1
			c-0.7,0-2,1.2-2,1.9c-0.8,14.1-1.4,28.3-2.1,42.4c-0.2,4.4,1.8,6.7,6.4,6.6c7.1-0.1,14.2-0.1,21.3,0.1c0.7,0,2,1.4,2.1,2.2
			c0.2,1.9-0.4,3.9-0.2,5.7c0.7,5.1-1.8,5.7-6.2,5.6c-15.4-0.3-30.9-0.1-46.3-0.1c-7.4,0-11.9-4.5-11.5-11.9
			c1.3-29.4,2.8-58.8,4.3-88.1c0-0.6,1.2-1.6,1.8-1.6c10.1-0.1,20.2-0.1,30.2,0c0.6,0,1.8,1.3,1.8,2c-0.2,6.6-0.6,13.3-0.8,19.9
			c0,0.6,1.3,1.7,2.1,1.7C574.3,269.2,583.5,269.2,592.9,269.2z"/>
		<path class="st2" d="M646.2,269.2c10.8,0,21.6,0,32.4,0c6.2,0,10.8,4.3,10.7,10.4c-0.1,8.5-0.6,17.1-1.1,25.6
			c0,0.5-0.8,1.3-1.2,1.3c-7.2,0-14.4,0.2-21.6-0.2c-5.3-0.4-8.8-4.6-8.9-9.9c-0.1-3.8,0.5-7.7,0.2-11.5c-0.2-1.9-1.3-4.9-2.7-5.4
			c-2.8-1-6.1-0.6-9.1-0.7c-0.2,0-0.5,1.2-0.5,1.9c-0.9,18.5-1.9,37-2.7,55.5c-0.5,10.8-0.3,10.8-11,10.8c-7.1,0-14.2,0.1-21.3-0.1
			c-0.7,0-2.1-1.3-2.1-2c1.1-24.5,2.3-49,3.6-73.5c0-0.8,1.5-2.3,2.3-2.3C624.3,269.1,635.3,269.2,646.2,269.2z"/>
		<path class="st2" d="M1006.3,269.2c5,0,9.9-0.1,14.9,0.1c0.7,0,1.9,1.3,1.8,2c-1.1,24.7-2.3,49.3-3.6,74c0,0.7-1.3,1.8-2,1.9
			c-6.9,0.1-13.7,0.2-20.6,0.1c-6.4-0.1-11-4.8-10.8-11.3c0.9-21.4,2-42.8,3.2-64.1c0-0.9,1.7-2.3,2.7-2.4
			C996.7,269,1001.5,269.2,1006.3,269.2z"/>
		<path class="st2" d="M990.5,260.7c0-6.8,0-13.3,0.1-19.8c0-0.6,1.2-1.6,1.8-1.6c10.1-0.1,20.3-0.1,30.4,0c0.6,0,1.8,1.2,1.8,1.9
			c-0.2,5.9-0.5,11.8-0.9,17.7c-0.1,0.7-1.2,1.8-1.8,1.8C1011.3,260.8,1000.7,260.7,990.5,260.7z"/>
	</g>
</g>
</svg>
